<?xml version="1.0" encoding="utf-8"?>
<!-- Generator: Adobe Illustrator 16.0.3, SVG Export Plug-In . SVG Version: 6.00 Build 0)  -->
<!DOCTYPE svg PUBLIC "-//W3C//DTD SVG 1.1//EN" "http://www.w3.org/Graphics/SVG/1.1/DTD/svg11.dtd">
<svg version="1.1" id="Слой_1" xmlns="http://www.w3.org/2000/svg" xmlns:xlink="http://www.w3.org/1999/xlink" x="0px" y="0px"
	 width="1000px" height="1000px" viewBox="0 0 1000 1000" enable-background="new 0 0 1000 1000" xml:space="preserve">
<g id="Background_xA0_Image_1_">
</g>
<g id="Row_1_1_">
	<g>
		<linearGradient id="SVGID_1_" gradientUnits="userSpaceOnUse" x1="323.405" y1="15.1016" x2="687.3893" y2="963.3129">
			<stop  offset="0" style="stop-color:#4534DD"/>
			<stop  offset="0.3162" style="stop-color:#B51D79"/>
			<stop  offset="0.6917" style="stop-color:#EE592E"/>
			<stop  offset="1" style="stop-color:#F7C55A"/>
		</linearGradient>
		<path fill="url(#SVGID_1_)" d="M760,493.333C760,633.333,646.666,750,503.333,750S250,633.333,250,493.333
			c0-16.666,0-33.333,6.666-50H83.333v340c0,73.334,60,130,130,130h580c73.333,0,130-60,130-130V440h-170
			C753.333,456.667,760,473.333,760,493.333z M793.333,66.667h-580c-73.333,0-130,60-130,130V340h213.333
			c43.334-66.667,120-110,210-110c86.667,0,160,43.333,210,110h216.667V196.667C923.333,126.667,863.333,66.667,793.333,66.667z
			 M860,233.333C860,250,850,260,833.333,260h-70c-13.333,0-26.667-10-26.667-26.667v-70c0-16.667,10-26.667,26.667-26.667h70
			c13.333,0,26.667,10,26.667,26.667V233.333z M660,493.333c0-83.333-70-156.667-156.667-156.667s-156.667,70-156.667,156.667
			c0,86.667,70,156.667,156.667,156.667S660,576.667,660,493.333z"/>
	</g>
</g>
</svg>
